<?xml version="1.0" encoding="UTF-8" standalone="no"?>
<!-- Created with Inkscape (http://www.inkscape.org/) -->

<svg
   xmlns:ns0="http://www.iki.fi/pav/software/textext/"
   xmlns:dc="http://purl.org/dc/elements/1.1/"
   xmlns:cc="http://creativecommons.org/ns#"
   xmlns:rdf="http://www.w3.org/1999/02/22-rdf-syntax-ns#"
   xmlns:svg="http://www.w3.org/2000/svg"
   xmlns="http://www.w3.org/2000/svg"
   xmlns:xlink="http://www.w3.org/1999/xlink"
   xmlns:sodipodi="http://sodipodi.sourceforge.net/DTD/sodipodi-0.dtd"
   xmlns:inkscape="http://www.inkscape.org/namespaces/inkscape"
   width="45"
   height="45"
   viewBox="0 0 42.1875 42.187498"
   id="svg6502"
   version="1.1"
   inkscape:version="0.92.1 r15371"
   sodipodi:docname="differential.svg"
   inkscape:export-filename="/home/ben/c/book/calculus.material/rulers.material/differentials.images/differential.png"
   inkscape:export-xdpi="200"
   inkscape:export-ydpi="200">
  <sodipodi:namedview
     id="base"
     pagecolor="#ffffff"
     bordercolor="#666666"
     borderopacity="1.0"
     inkscape:pageopacity="0.0"
     inkscape:pageshadow="2"
     inkscape:zoom="0.35"
     inkscape:cx="375"
     inkscape:cy="520"
     inkscape:document-units="px"
     inkscape:current-layer="layer1"
     showgrid="true"
     inkscape:snap-global="true"
     fit-margin-top="0"
     fit-margin-left="0"
     fit-margin-right="0"
     fit-margin-bottom="0"
     borderlayer="true"
     units="px"
     showborder="true">
    <inkscape:grid
       originy="-894.37496"
       originx="-227.8125"
       id="grid6663"
       type="xygrid" />
  </sodipodi:namedview>
  <defs
     id="defs6504" />
  <metadata
     id="metadata6507">
    <rdf:RDF>
      <cc:Work
         rdf:about="">
        <dc:format>image/svg+xml</dc:format>
        <dc:type
           rdf:resource="http://purl.org/dc/dcmitype/StillImage" />
        <dc:title></dc:title>
      </cc:Work>
    </rdf:RDF>
  </metadata>
  <g
     transform="translate(-227.81248,-115.79965)"
     inkscape:label="Layer 1"
     inkscape:groupmode="layer"
     id="layer1">
    <g
       id="g6428"
       transform="matrix(1.75,0,0,1.75,-155.21883,-96.835856)"
       ns0:preamble=""
       ns0:text="\\Huge $\\partial$">
      <defs
         id="defs6421">
        <g
           id="g6419">
          <symbol
             id="textext-3fc765b6-0"
             overflow="visible"
             style="overflow:visible">
            <path
               id="path6413"
               d=""
               style="stroke:none"
               inkscape:connector-curvature="0" />
          </symbol>
          <symbol
             id="textext-3fc765b6-1"
             overflow="visible"
             style="overflow:visible">
            <path
               id="path6416"
               d="m 11.25,-8.28125 c -0.140625,-1.390625 -1.015625,-3.046875 -3.25,-3.046875 -3.484375,0 -7.0625,3.546875 -7.0625,7.484375 0,1.515625 1.046875,4.359375 4.421875,4.359375 5.84375,0 8.34375,-8.515625 8.34375,-11.921875 0,-3.5625 -2,-6.3125 -5.171875,-6.3125 -3.59375,0 -4.671875,3.140625 -4.671875,3.8125 0,0.234375 0.15625,0.765625 0.84375,0.765625 0.875,0 1.25,-0.78125 1.25,-1.203125 0,-0.765625 -0.78125,-0.765625 -1.09375,-0.765625 C 5.875,-16.953125 7.75,-17.125 8.421875,-17.125 c 2.1875,0 3.578125,1.734375 3.578125,4.515625 0,1.578125 -0.484375,3.421875 -0.71875,4.328125 z m -5.828125,8.125 c -2.328125,0 -2.71875,-1.828125 -2.71875,-2.859375 0,-1.09375 0.6875,-3.65625 1.0625,-4.5625 0.328125,-0.75 1.734375,-3.25 4.3125,-3.25 2.25,0 2.78125,1.953125 2.78125,3.296875 0,1.828125 -1.609375,7.375 -5.4375,7.375 z m 0,0"
               style="stroke:none"
               inkscape:connector-curvature="0" />
          </symbol>
        </g>
      </defs>
      <g
         id="textext-3fc765b6-2">
        <g
           id="g6425"
           style="fill:#000000;fill-opacity:1">
          <use
             id="use6423"
             y="142.015"
             x="223.43201"
             xlink:href="#textext-3fc765b6-1"
             width="100%"
             height="100%" />
        </g>
      </g>
    </g>
  </g>
</svg>
