<?xml version="1.0" standalone="no"?>
<!DOCTYPE svg PUBLIC "-//W3C//DTD SVG 20010904//EN"
 "http://www.w3.org/TR/2001/REC-SVG-20010904/DTD/svg10.dtd">
<svg version="1.0" xmlns="http://www.w3.org/2000/svg"
 width="700.000000pt" height="700.000000pt" viewBox="0 0 700.000000 700.000000"
 preserveAspectRatio="xMidYMid meet">
<metadata>
Created by potrace 1.11, written by Peter Selinger 2001-2013
</metadata>
<g transform="translate(0.000000,700.000000) scale(0.100000,-0.100000)"
fill="#000000" stroke="none">
<path d="M3580 6175 c-177 -26 -370 -92 -505 -173 -223 -134 -425 -359 -534
-593 -45 -99 -87 -226 -94 -288 -21 -190 155 -307 360 -239 198 65 310 333
196 468 -40 48 -127 80 -217 80 -58 0 -58 0 17 108 197 286 533 461 912 476
443 18 784 -198 963 -609 34 -78 86 -252 98 -330 4 -27 9 -57 10 -65 23 -144
23 -528 0 -646 -2 -12 -7 -45 -11 -75 -6 -48 -35 -223 -50 -304 -3 -16 -17
-77 -30 -135 -13 -58 -26 -116 -29 -130 -2 -14 -12 -53 -21 -87 -9 -35 -18
-71 -20 -80 -16 -67 -24 -95 -28 -99 -2 -3 -12 35 -20 83 -82 448 -360 727
-785 788 -86 12 -336 6 -392 -10 -8 -2 -31 -7 -50 -10 -143 -24 -365 -104
-520 -187 -82 -44 -204 -117 -235 -140 -373 -280 -616 -568 -795 -942 -47 -99
-105 -248 -126 -326 -123 -459 -100 -802 76 -1152 150 -297 406 -513 715 -604
44 -12 95 -25 113 -28 145 -25 176 -28 309 -28 73 0 152 3 175 7 24 4 57 9 73
11 17 2 41 7 55 9 14 3 34 7 45 9 151 29 351 109 510 204 250 150 507 395 712
682 278 387 518 910 672 1460 52 186 102 406 117 517 3 26 8 51 10 54 1 3 8
43 13 90 6 46 14 111 18 144 15 121 8 538 -11 640 -2 11 -7 40 -11 65 -13 79
-15 86 -40 186 -69 266 -202 534 -355 716 -169 200 -398 356 -631 429 -96 30
-107 33 -170 43 -19 3 -45 8 -59 11 -51 12 -347 12 -430 0z m255 -2000 c108
-20 237 -74 311 -131 159 -120 276 -342 315 -599 16 -107 14 -329 -5 -440 -24
-146 -26 -156 -52 -260 -132 -524 -369 -981 -664 -1275 -123 -123 -217 -193
-345 -258 -86 -44 -209 -88 -271 -98 -22 -3 -58 -9 -81 -14 -24 -4 -89 -7
-145 -7 -375 0 -628 166 -736 483 -69 201 -65 460 13 822 74 349 196 755 272
907 171 341 434 620 718 759 145 72 200 88 405 120 32 5 227 -1 265 -9z"/>
</g>
</svg>
